<svg width="24" height="24" viewBox="0 0 24 24" fill="none" xmlns="http://www.w3.org/2000/svg">
<path d="M12.3308 4.61684C14.7362 4.61684 15.0149 4.6248 15.9627 4.67259C16.8389 4.71241 17.3167 4.85578 17.6353 4.98321C18.0575 5.14251 18.3521 5.34163 18.6707 5.65225C18.9893 5.97084 19.1805 6.26553 19.3398 6.68766C19.4592 7.00625 19.6106 7.48413 19.6504 8.36025C19.6902 9.30805 19.7062 9.59479 19.7062 11.9922C19.7062 14.3895 19.6982 14.6763 19.6504 15.6241C19.6106 16.5002 19.4672 16.9781 19.3398 17.2967C19.1805 17.7188 18.9814 18.0135 18.6707 18.3321C18.3601 18.6507 18.0575 18.8418 17.6353 19.0011C17.3167 19.1206 16.8389 19.2719 15.9627 19.3117C15.0149 19.3516 14.7282 19.3675 12.3308 19.3675C9.93344 19.3675 9.64671 19.3595 8.69891 19.3117C7.82279 19.2719 7.34491 19.1286 7.02632 19.0011C6.60419 18.8418 6.30949 18.6427 5.9909 18.3321C5.67232 18.0135 5.48116 17.7188 5.32187 17.2967C5.2024 16.9781 5.05107 16.5002 5.01124 15.6241C4.97142 14.6763 4.95549 14.3895 4.95549 11.9922C4.95549 9.59479 4.96346 9.30805 5.01124 8.36025C5.05107 7.48413 5.19443 7.00625 5.32187 6.68766C5.48116 6.26553 5.68028 5.97084 5.9909 5.65225C6.30949 5.33366 6.60419 5.14251 7.02632 4.98321C7.34491 4.86374 7.82279 4.71241 8.69891 4.67259C9.64671 4.63277 9.93344 4.61684 12.3308 4.61684ZM12.3308 3C9.88565 3 9.58299 3.00796 8.61926 3.05575C7.6635 3.09558 7.01039 3.25487 6.43693 3.47788C5.84754 3.70886 5.34576 4.01152 4.84399 4.5133C4.34221 5.01508 4.03955 5.51685 3.80857 6.10624C3.58556 6.6797 3.43423 7.33281 3.39441 8.28857C3.34662 9.24434 3.33865 9.55496 3.33865 12.0001C3.33865 14.4453 3.34662 14.748 3.39441 15.7117C3.43423 16.6675 3.59352 17.3206 3.80857 17.894C4.03955 18.4834 4.34221 18.9852 4.84399 19.487C5.34576 19.9887 5.84754 20.2914 6.43693 20.5224C7.01039 20.7454 7.6635 20.8967 8.61926 20.9445C9.57503 20.9843 9.88565 21.0003 12.3308 21.0003C14.776 21.0003 15.0786 20.9923 16.0424 20.9445C16.9981 20.9047 17.6513 20.7454 18.2247 20.5224C18.8141 20.2914 19.3159 19.9887 19.8177 19.487C20.3194 18.9852 20.6221 18.4834 20.8531 17.894C21.0761 17.3206 21.2274 16.6675 21.2672 15.7117C21.3071 14.7559 21.323 14.4453 21.323 12.0001C21.323 9.55496 21.315 9.2523 21.2672 8.28857C21.2274 7.33281 21.0681 6.6797 20.8531 6.10624C20.6221 5.51685 20.3194 5.01508 19.8177 4.5133C19.3159 4.01152 18.8141 3.70886 18.2247 3.47788C17.6513 3.25487 16.9981 3.10354 16.0424 3.05575C15.0866 3.01593 14.776 3 12.3308 3Z" fill="white"/>
<path d="M12.3308 7.3728C9.78213 7.3728 7.7113 9.44363 7.7113 11.9923C7.7113 14.5411 9.78213 16.6119 12.3308 16.6119C14.8796 16.6119 16.9504 14.5411 16.9504 11.9923C16.9504 9.44363 14.8796 7.3728 12.3308 7.3728ZM12.3308 14.9871C10.6742 14.9871 9.33611 13.641 9.33611 11.9923C9.33611 10.3436 10.6821 8.99761 12.3308 8.99761C13.9795 8.99761 15.3256 10.3436 15.3256 11.9923C15.3256 13.641 13.9795 14.9871 12.3308 14.9871Z" fill="white"/>
<path d="M18.2088 7.1894C18.2088 7.78676 17.7229 8.27261 17.1256 8.27261C16.5282 8.27261 16.0424 7.78676 16.0424 7.1894C16.0424 6.59205 16.5282 6.1062 17.1256 6.1062C17.7229 6.1062 18.2088 6.59205 18.2088 7.1894Z" fill="white"/>
</svg>
